<?xml version="1.0" standalone="no"?>
<!DOCTYPE svg PUBLIC "-//W3C//DTD SVG 20010904//EN"
 "http://www.w3.org/TR/2001/REC-SVG-20010904/DTD/svg10.dtd">
<svg version="1.0" xmlns="http://www.w3.org/2000/svg"
 width="230.000000pt" height="230.000000pt" viewBox="0 0 230.000000 230.000000"
 preserveAspectRatio="xMidYMid meet">
<metadata>
Created by potrace 1.11, written by Peter Selinger 2001-2013
</metadata>
<g transform="translate(0.000000,230.000000) scale(0.100000,-0.100000)"
fill="#000000" stroke="none">
<path d="M1630 1710 l0 -130 135 0 135 0 0 130 0 130 -135 0 -135 0 0 -130z"/>
<path d="M370 1135 l0 -695 145 0 145 0 2 248 3 247 220 6 c234 7 264 11 352
54 144 71 200 195 191 422 -6 149 -29 208 -113 289 -113 109 -184 124 -632
124 l-313 0 0 -695z m680 422 c19 -9 46 -34 60 -54 22 -31 25 -48 25 -117 0
-98 -20 -139 -86 -176 -41 -24 -54 -25 -216 -28 l-173 -4 0 202 0 202 178 -4
c144 -2 183 -6 212 -21z"/>
<path d="M1630 955 l0 -515 135 0 135 0 0 515 0 515 -135 0 -135 0 0 -515z"/>
</g>
</svg>
