<?xml version="1.0" encoding="utf-8"?>
<!-- Svg Vector Icons : http://www.onlinewebfonts.com/icon -->
<!DOCTYPE svg PUBLIC "-//W3C//DTD SVG 1.1//EN" "http://www.w3.org/Graphics/SVG/1.1/DTD/svg11.dtd">
<svg version="1.1" xmlns="http://www.w3.org/2000/svg" xmlns:xlink="http://www.w3.org/1999/xlink" x="0px" y="0px" viewBox="0 0 1000 1000" enable-background="new 0 0 1000 1000" xml:space="preserve">
<metadata> Svg Vector Icons : http://www.onlinewebfonts.com/icon </metadata>
<g><path d="M45,290h825.5L720.3,440.3c-13.7,13.7-13.7,35.8,0,49.5c6.8,6.8,15.8,10.3,24.7,10.3s17.9-3.4,24.7-10.3l210-210c13.7-13.7,13.7-35.8,0-49.5l-210-210c-13.7-13.7-35.8-13.7-49.5,0c-13.7,13.7-13.7,35.8,0,49.5L870.5,220H45c-19.3,0-35,15.7-35,35C10,274.3,25.7,290,45,290z"/><path d="M955,710H129.5l150.3-150.3c13.7-13.7,13.7-35.8,0-49.5c-13.7-13.7-35.8-13.7-49.5,0l-210,210c-13.7,13.7-13.7,35.8,0,49.5l210,210c6.8,6.8,15.8,10.3,24.7,10.3s17.9-3.4,24.7-10.3c13.7-13.7,13.7-35.8,0-49.5L129.5,780H955c19.3,0,35-15.7,35-35C990,725.7,974.3,710,955,710z"/></g>
</svg>